<?xml version="1.0" encoding="utf-8"?>
<!-- Generator: Adobe Illustrator 25.2.0, SVG Export Plug-In . SVG Version: 6.00 Build 0)  -->
<svg version="1.1" id="Layer_1" xmlns="http://www.w3.org/2000/svg" xmlns:xlink="http://www.w3.org/1999/xlink" x="0px" y="0px"
	 viewBox="0 0 2000 2000" style="enable-background:new 0 0 2000 2000;" xml:space="preserve">
<style type="text/css">
	.st0{fill:#FFFFFF;}
	.st1{fill:#006AD0;}
	.st2{fill:#0176E7;}
</style>
<circle class="st0" cx="1000" cy="1000" r="1000"/>
<g>
	<path class="st1" d="M1019.4,435.2c-2.9-2.6-173.8-154.9-176.4-157.2c-46.1-40.9-116.6-36.5-157.4,9.4
		c-30.8,34.7-35.9,83.5-16.8,122.9C446.2,437.1,273,627.2,273,856.9c0,248,201.8,449.7,449.7,449.7c61.5,0,111.5-50,111.5-111.5
		c0-61.5-50-111.5-111.5-111.5c-125,0-226.7-101.7-226.7-226.7c0-107.4,75.1-197.5,175.5-220.8c-22.1,40.2-17.9,91.9,14.1,128
		c40.6,45.8,111.1,50.6,157.4,9.4c9.1-8,163.6-159.3,177.8-172.6C1069.4,556.3,1068.9,479.2,1019.4,435.2L1019.4,435.2z"/>
	<path class="st2" d="M1727,1143.1c0-248-201.8-449.7-449.7-449.7c-61.5,0-111.5,50-111.5,111.5c0,61.5,50,111.5,111.5,111.5
		c125,0,226.7,101.7,226.7,226.7c0,107.4-75.1,197.5-175.5,220.8c22.1-40.2,17.9-91.9-14.1-128c-40.6-45.8-111.1-50.6-157.4-9.4
		c-9.1,8.1-163.5,159.2-177.8,172.6c-48.6,44.6-48.2,121.7,1.4,165.6c2.9,2.6,173.8,154.9,176.4,157.2
		c46.1,40.9,116.6,36.5,157.4-9.4c30.8-34.7,35.9-83.5,16.8-122.9C1553.8,1562.9,1727,1372.8,1727,1143.1L1727,1143.1z"/>
</g>
</svg>
